<svg xmlns="http://www.w3.org/2000/svg" width="840" height="400" viewBox="0 0 840 400">
<defs><marker id="arrow" markerWidth="10" markerHeight="10" refX="9" refY="3" orient="auto" markerUnits="strokeWidth"><path d="M0,0 L0,6 L9,3 z" fill="#555" /></marker></defs>
<rect width="100%" height="100%" fill="#fff"/>
<line x1="155.0" y1="119.0" x2="405.0" y2="120.0" stroke="#555" stroke-width="1.8" marker-end="url(#arrow)" opacity=".8"/>
<line x1="405.0" y1="120.0" x2="645.0" y2="119.0" stroke="#555" stroke-width="1.8" marker-end="url(#arrow)" opacity=".8"/>
<line x1="645.0" y1="119.0" x2="665.0" y2="285.0" stroke="#555" stroke-width="1.8" marker-end="url(#arrow)" opacity=".8"/>
<line x1="665.0" y1="285.0" x2="405.0" y2="280.0" stroke="#555" stroke-width="1.8" marker-end="url(#arrow)" opacity=".8"/>
<line x1="405.0" y1="280.0" x2="155.0" y2="119.0" stroke="#555" stroke-width="1.8" marker-end="url(#arrow)" opacity=".8"/>
<line x1="175.0" y1="280.0" x2="645.0" y2="119.0" stroke="#555" stroke-width="1.8" marker-end="url(#arrow)" opacity=".8"/>
<rect x="80.0" y="90.0" width="150.0" height="58.0" rx="10" fill="#dae8fc" stroke="#6c8ebf" stroke-width="1.6"/>
<text x="155.0" y="124.0" text-anchor="middle" font-family="Arial, PingFang SC, Microsoft YaHei, sans-serif" font-size="13" fill="#333">
<tspan x="155.0" dy="0">用户态程序</tspan>
</text>
<rect x="310.0" y="90.0" width="190.0" height="60.0" rx="10" fill="#fff2cc" stroke="#d6b656" stroke-width="1.6"/>
<text x="405.0" y="116.5" text-anchor="middle" font-family="Arial, PingFang SC, Microsoft YaHei, sans-serif" font-size="13" fill="#333">
<tspan x="405.0" dy="0">syscall / trap</tspan>
<tspan x="405.0" dy="17">特权级切换</tspan>
</text>
<rect x="570.0" y="90.0" width="150.0" height="58.0" rx="10" fill="#dae8fc" stroke="#6c8ebf" stroke-width="1.6"/>
<text x="645.0" y="115.5" text-anchor="middle" font-family="Arial, PingFang SC, Microsoft YaHei, sans-serif" font-size="13" fill="#333">
<tspan x="645.0" dy="0">内核入口</tspan>
<tspan x="645.0" dy="17">保存上下文</tspan>
</text>
<rect x="570.0" y="250.0" width="190.0" height="70.0" rx="10" fill="#dae8fc" stroke="#6c8ebf" stroke-width="1.6"/>
<text x="665.0" y="281.5" text-anchor="middle" font-family="Arial, PingFang SC, Microsoft YaHei, sans-serif" font-size="13" fill="#333">
<tspan x="665.0" dy="0">执行内核服务</tspan>
<tspan x="665.0" dy="17">IO/调度/权限</tspan>
</text>
<rect x="310.0" y="250.0" width="190.0" height="60.0" rx="10" fill="#dae8fc" stroke="#6c8ebf" stroke-width="1.6"/>
<text x="405.0" y="276.5" text-anchor="middle" font-family="Arial, PingFang SC, Microsoft YaHei, sans-serif" font-size="13" fill="#333">
<tspan x="405.0" dy="0">恢复上下文</tspan>
<tspan x="405.0" dy="17">返回用户态</tspan>
</text>
<rect x="80.0" y="250.0" width="190.0" height="60.0" rx="10" fill="#f8cecc" stroke="#b85450" stroke-width="1.6"/>
<text x="175.0" y="276.5" text-anchor="middle" font-family="Arial, PingFang SC, Microsoft YaHei, sans-serif" font-size="13" fill="#333">
<tspan x="175.0" dy="0">中断/异常</tspan>
<tspan x="175.0" dy="17">也进入内核处理</tspan>
</text>
</svg>