<svg xmlns="http://www.w3.org/2000/svg" width="800" height="620" viewBox="0 0 800 620">
<defs><marker id="arrow" markerWidth="10" markerHeight="10" refX="9" refY="3" orient="auto" markerUnits="strokeWidth"><path d="M0,0 L0,6 L9,3 z" fill="#555" /></marker></defs>
<rect width="100%" height="100%" fill="#fff"/>
<line x1="510.0" y1="67.5" x2="165.0" y2="199.0" stroke="#555" stroke-width="1.8" marker-end="url(#arrow)" opacity=".8"/>
<line x1="510.0" y1="67.5" x2="405.0" y2="199.0" stroke="#555" stroke-width="1.8" marker-end="url(#arrow)" opacity=".8"/>
<line x1="510.0" y1="67.5" x2="645.0" y2="199.0" stroke="#555" stroke-width="1.8" marker-end="url(#arrow)" opacity=".8"/>
<line x1="165.0" y1="199.0" x2="165.0" y2="349.0" stroke="#555" stroke-width="1.8" marker-end="url(#arrow)" opacity=".8"/>
<line x1="405.0" y1="199.0" x2="405.0" y2="349.0" stroke="#555" stroke-width="1.8" marker-end="url(#arrow)" opacity=".8"/>
<line x1="645.0" y1="199.0" x2="645.0" y2="349.0" stroke="#555" stroke-width="1.8" marker-end="url(#arrow)" opacity=".8"/>
<line x1="165.0" y1="349.0" x2="480.0" y2="505.0" stroke="#555" stroke-width="1.8" marker-end="url(#arrow)" opacity=".8"/>
<line x1="405.0" y1="349.0" x2="480.0" y2="505.0" stroke="#555" stroke-width="1.8" marker-end="url(#arrow)" opacity=".8"/>
<line x1="645.0" y1="349.0" x2="480.0" y2="505.0" stroke="#555" stroke-width="1.8" marker-end="url(#arrow)" opacity=".8"/>
<rect x="420.0" y="40.0" width="180.0" height="55.0" rx="10" fill="#e1d5e7" stroke="#9673a6" stroke-width="1.6"/>
<text x="510.0" y="72.5" text-anchor="middle" font-family="Arial, PingFang SC, Microsoft YaHei, sans-serif" font-size="13" fill="#333">
<tspan x="510.0" dy="0">流水线冒险</tspan>
</text>
<rect x="90.0" y="170.0" width="150.0" height="58.0" rx="10" fill="#dae8fc" stroke="#6c8ebf" stroke-width="1.6"/>
<text x="165.0" y="195.5" text-anchor="middle" font-family="Arial, PingFang SC, Microsoft YaHei, sans-serif" font-size="13" fill="#333">
<tspan x="165.0" dy="0">结构冒险</tspan>
<tspan x="165.0" dy="17">资源冲突</tspan>
</text>
<rect x="330.0" y="170.0" width="150.0" height="58.0" rx="10" fill="#dae8fc" stroke="#6c8ebf" stroke-width="1.6"/>
<text x="405.0" y="195.5" text-anchor="middle" font-family="Arial, PingFang SC, Microsoft YaHei, sans-serif" font-size="13" fill="#333">
<tspan x="405.0" dy="0">数据冒险</tspan>
<tspan x="405.0" dy="17">结果依赖</tspan>
</text>
<rect x="570.0" y="170.0" width="150.0" height="58.0" rx="10" fill="#dae8fc" stroke="#6c8ebf" stroke-width="1.6"/>
<text x="645.0" y="195.5" text-anchor="middle" font-family="Arial, PingFang SC, Microsoft YaHei, sans-serif" font-size="13" fill="#333">
<tspan x="645.0" dy="0">控制冒险</tspan>
<tspan x="645.0" dy="17">分支跳转</tspan>
</text>
<rect x="90.0" y="320.0" width="150.0" height="58.0" rx="10" fill="#dae8fc" stroke="#6c8ebf" stroke-width="1.6"/>
<text x="165.0" y="354.0" text-anchor="middle" font-family="Arial, PingFang SC, Microsoft YaHei, sans-serif" font-size="13" fill="#333">
<tspan x="165.0" dy="0">资源复制/暂停</tspan>
</text>
<rect x="330.0" y="320.0" width="150.0" height="58.0" rx="10" fill="#dae8fc" stroke="#6c8ebf" stroke-width="1.6"/>
<text x="405.0" y="345.5" text-anchor="middle" font-family="Arial, PingFang SC, Microsoft YaHei, sans-serif" font-size="13" fill="#333">
<tspan x="405.0" dy="0">转发/气泡</tspan>
<tspan x="405.0" dy="17">乱序执行</tspan>
</text>
<rect x="570.0" y="320.0" width="150.0" height="58.0" rx="10" fill="#dae8fc" stroke="#6c8ebf" stroke-width="1.6"/>
<text x="645.0" y="345.5" text-anchor="middle" font-family="Arial, PingFang SC, Microsoft YaHei, sans-serif" font-size="13" fill="#333">
<tspan x="645.0" dy="0">分支预测</tspan>
<tspan x="645.0" dy="17">预测错冲刷</tspan>
</text>
<rect x="360.0" y="470.0" width="240.0" height="70.0" rx="10" fill="#f8cecc" stroke="#b85450" stroke-width="1.6"/>
<text x="480.0" y="501.5" text-anchor="middle" font-family="Arial, PingFang SC, Microsoft YaHei, sans-serif" font-size="13" fill="#333">
<tspan x="480.0" dy="0">CPI 上升</tspan>
<tspan x="480.0" dy="17">吞吐下降</tspan>
</text>
</svg>