<?xml version="1.0" encoding="UTF-8"?>
<svg xmlns="http://www.w3.org/2000/svg" viewBox="0 0 800 420">
<rect width="800" height="420" fill="white"/>
<text x="400" y="30" text-anchor="middle" font-size="16" font-weight="bold" fill="#333">Java 类与对象初始化顺序</text>
<text x="91" y="58" text-anchor="middle" font-size="11" fill="#888" font-style="italic">1. 父类静态</text>
<rect x="35" y="185" width="113" height="50" rx="5" fill="#dae8fc" stroke="#6c8ebf" stroke-width="1.5"/>
<text x="91" y="210" text-anchor="middle" font-size="10" fill="#1a1a2e"><text text-anchor="middle"><tspan x="0" dy="8.0">父类 static 字段赋值</tspan></text></text>
<rect x="35" y="245" width="113" height="50" rx="5" fill="#dae8fc" stroke="#6c8ebf" stroke-width="1.5"/>
<text x="91" y="270" text-anchor="middle" font-size="10" fill="#1a1a2e"><text text-anchor="middle"><tspan x="0" dy="8.0">父类 static 代码块</tspan></text></text>
<line x1="153" y1="245" x2="165" y2="245" stroke="#999" stroke-width="1.5"/>
<polygon points="161,241 167,245 161,249" fill="#999"/>
<text x="214" y="58" text-anchor="middle" font-size="11" fill="#888" font-style="italic">2. 子类静态</text>
<rect x="158" y="185" width="113" height="50" rx="5" fill="#ffe6cc" stroke="#d79b00" stroke-width="1.5"/>
<text x="214" y="210" text-anchor="middle" font-size="10" fill="#4a3000"><text text-anchor="middle"><tspan x="0" dy="8.0">子类 static 字段赋值</tspan></text></text>
<rect x="158" y="245" width="113" height="50" rx="5" fill="#ffe6cc" stroke="#d79b00" stroke-width="1.5"/>
<text x="214" y="270" text-anchor="middle" font-size="10" fill="#4a3000"><text text-anchor="middle"><tspan x="0" dy="8.0">子类 static 代码块</tspan></text></text>
<line x1="276" y1="245" x2="288" y2="245" stroke="#999" stroke-width="1.5"/>
<polygon points="284,241 290,245 284,249" fill="#999"/>
<text x="337" y="58" text-anchor="middle" font-size="11" fill="#888" font-style="italic">3. 父类实例</text>
<rect x="281" y="185" width="113" height="50" rx="5" fill="#e1d5e7" stroke="#9673a6" stroke-width="1.5"/>
<text x="337" y="210" text-anchor="middle" font-size="10" fill="#2d1b4e"><text text-anchor="middle"><tspan x="0" dy="8.0">父类实例字段赋值</tspan></text></text>
<rect x="281" y="245" width="113" height="50" rx="5" fill="#e1d5e7" stroke="#9673a6" stroke-width="1.5"/>
<text x="337" y="270" text-anchor="middle" font-size="10" fill="#2d1b4e"><text text-anchor="middle"><tspan x="0" dy="8.0">父类实例代码块</tspan></text></text>
<line x1="399" y1="245" x2="411" y2="245" stroke="#999" stroke-width="1.5"/>
<polygon points="407,241 413,245 407,249" fill="#999"/>
<text x="460" y="58" text-anchor="middle" font-size="11" fill="#888" font-style="italic">4. 父类构造</text>
<rect x="404" y="215" width="113" height="50" rx="5" fill="#e1d5e7" stroke="#9673a6" stroke-width="1.5"/>
<text x="460" y="240" text-anchor="middle" font-size="10" fill="#2d1b4e"><text text-anchor="middle"><tspan x="0" dy="8.0">父类构造器执行</tspan></text></text>
<line x1="522" y1="245" x2="534" y2="245" stroke="#999" stroke-width="1.5"/>
<polygon points="530,241 536,245 530,249" fill="#999"/>
<text x="583" y="58" text-anchor="middle" font-size="11" fill="#888" font-style="italic">5. 子类实例</text>
<rect x="527" y="185" width="113" height="50" rx="5" fill="#d5e8d4" stroke="#82b366" stroke-width="1.5"/>
<text x="583" y="210" text-anchor="middle" font-size="10" fill="#1b4a1b"><text text-anchor="middle"><tspan x="0" dy="8.0">子类实例字段赋值</tspan></text></text>
<rect x="527" y="245" width="113" height="50" rx="5" fill="#d5e8d4" stroke="#82b366" stroke-width="1.5"/>
<text x="583" y="270" text-anchor="middle" font-size="10" fill="#1b4a1b"><text text-anchor="middle"><tspan x="0" dy="8.0">子类实例代码块</tspan></text></text>
<line x1="645" y1="245" x2="657" y2="245" stroke="#999" stroke-width="1.5"/>
<polygon points="653,241 659,245 653,249" fill="#999"/>
<text x="706" y="58" text-anchor="middle" font-size="11" fill="#888" font-style="italic">6. 子类构造</text>
<rect x="650" y="215" width="113" height="50" rx="5" fill="#d5e8d4" stroke="#82b366" stroke-width="1.5"/>
<text x="706" y="240" text-anchor="middle" font-size="10" fill="#1b4a1b"><text text-anchor="middle"><tspan x="0" dy="8.0">子类构造器剩余部分</tspan></text></text>
</svg>