<?xml version="1.0" encoding="UTF-8"?>
<svg xmlns="http://www.w3.org/2000/svg" viewBox="0 0 850 260">
<rect width="850" height="260" fill="white"/>
<text x="425" y="28" text-anchor="middle" font-size="15" font-weight="bold" fill="#333">Redis Sentinel 哨兵架构</text>
<rect x="125" y="110" width="120" height="60" rx="8" fill="#ffe6cc" stroke="#d79b00" stroke-width="1.5"/>
<text x="185" y="138" text-anchor="middle" font-size="10" fill="#4a3000">Sentinel集群</text>
<text x="185" y="156" text-anchor="middle" font-size="8" fill="#888">多节点监控
(奇数≥3)</text>
<line x1="245" y1="140" x2="285" y2="140" stroke="#999" stroke-width="1.5"/>
<polygon points="280,136 285,140 280,144" fill="#999"/>
<rect x="285" y="110" width="120" height="60" rx="8" fill="#f8cecc" stroke="#b85450" stroke-width="1.5"/>
<text x="345" y="138" text-anchor="middle" font-size="10" fill="#4a1b1b">主观下线 SDOWN</text>
<text x="345" y="156" text-anchor="middle" font-size="8" fill="#888">单个Sentinel
判断节点不可达</text>
<line x1="405" y1="140" x2="445" y2="140" stroke="#999" stroke-width="1.5"/>
<polygon points="440,136 445,140 440,144" fill="#999"/>
<rect x="445" y="110" width="120" height="60" rx="8" fill="#f8cecc" stroke="#b85450" stroke-width="1.5"/>
<text x="505" y="138" text-anchor="middle" font-size="10" fill="#4a1b1b">客观下线 ODOWN</text>
<text x="505" y="156" text-anchor="middle" font-size="8" fill="#888">多数Sentinel
确认节点下线</text>
<line x1="565" y1="140" x2="605" y2="140" stroke="#999" stroke-width="1.5"/>
<polygon points="600,136 605,140 600,144" fill="#999"/>
<rect x="605" y="110" width="120" height="60" rx="8" fill="#d5e8d4" stroke="#82b366" stroke-width="1.5"/>
<text x="665" y="138" text-anchor="middle" font-size="10" fill="#1b4a1b">故障转移</text>
<text x="665" y="156" text-anchor="middle" font-size="8" fill="#888">选新Master
通知客户端</text>
</svg>